<svg width="34" height="7" viewBox="0 0 34 7" fill="none" xmlns="http://www.w3.org/2000/svg">
<path opacity="0.35" fill-rule="evenodd" clip-rule="evenodd" d="M22.9435 0.888123C22.441 0.888123 22.2422 0.926496 22.0371 1.03619C21.864 1.1288 21.7296 1.2632 21.637 1.43637C21.5273 1.64147 21.4889 1.84019 21.4889 2.34271V4.58367C21.4889 5.08619 21.5273 5.28491 21.637 5.49001C21.7296 5.66317 21.864 5.79758 22.0371 5.89019C22.2422 5.99988 22.441 6.03826 22.9435 6.03826H30.5007C31.0032 6.03826 31.2019 5.99988 31.407 5.89019C31.5802 5.79758 31.7146 5.66317 31.8072 5.49001C31.9169 5.28491 31.9553 5.08619 31.9553 4.58367V2.34271C31.9553 1.84019 31.9169 1.64147 31.8072 1.43637C31.7146 1.2632 31.5802 1.1288 31.407 1.03619C31.2019 0.926496 31.0032 0.888123 30.5007 0.888123H22.9435Z" stroke="white" stroke-width="0.4984"/>
<path opacity="0.4" d="M32.7029 2.46638V4.45998C33.104 4.29114 33.3648 3.89835 33.3648 3.46318C33.3648 3.02802 33.104 2.63523 32.7029 2.46638Z" fill="white"/>
<path d="M23.0884 1.63571H30.3558C30.652 1.63571 30.7594 1.66655 30.8677 1.72447C30.976 1.78239 31.061 1.86738 31.1189 1.97567C31.1768 2.08397 31.2077 2.19138 31.2077 2.48761V4.43875C31.2077 4.73497 31.1768 4.84239 31.1189 4.95069C31.061 5.05898 30.976 5.14397 30.8677 5.20189C30.7594 5.2598 30.652 5.29065 30.3558 5.29065H23.0884C22.7922 5.29065 22.6847 5.2598 22.5764 5.20189C22.4681 5.14397 22.3832 5.05898 22.3252 4.95069C22.2673 4.84239 22.2365 4.73497 22.2365 4.43875V2.48761C22.2365 2.19138 22.2673 2.08397 22.3252 1.97567C22.3832 1.86738 22.4681 1.78239 22.5764 1.72447C22.6847 1.66655 22.7922 1.63571 23.0884 1.63571Z" fill="white"/>
<path d="M14.9269 1.77619C16.0357 1.77624 17.1021 2.20192 17.9057 2.96527C17.9662 3.0242 18.0629 3.02346 18.1225 2.9636L18.701 2.38031C18.7312 2.34995 18.748 2.30883 18.7477 2.26604C18.7475 2.22325 18.7302 2.18233 18.6997 2.15233C16.5905 0.132696 13.263 0.132696 11.1538 2.15233C11.1232 2.18231 11.1059 2.22322 11.1056 2.26601C11.1053 2.30879 11.1221 2.34993 11.1523 2.38031L11.7309 2.9636C11.7905 3.02355 11.8873 3.02429 11.9478 2.96527C12.7515 2.20187 13.818 1.77618 14.9269 1.77619ZM14.9269 3.67389C15.5361 3.67385 16.1236 3.9001 16.5752 4.30868C16.6363 4.36666 16.7325 4.3654 16.792 4.30584L17.3698 3.72255C17.4002 3.69195 17.4171 3.65045 17.4167 3.60732C17.4162 3.56419 17.3985 3.52304 17.3675 3.49307C15.9923 2.21496 13.8627 2.21496 12.4875 3.49307C12.4564 3.52304 12.4387 3.56421 12.4383 3.60735C12.4379 3.6505 12.4548 3.692 12.4853 3.72255L13.0629 4.30584C13.1225 4.3654 13.2187 4.36666 13.2798 4.30868C13.7311 3.90037 14.3181 3.67414 14.9269 3.67389ZM16.0373 5.06596C16.0682 5.03565 16.0852 4.99396 16.0843 4.95071C16.0834 4.90746 16.0647 4.86649 16.0326 4.83747C15.3943 4.29807 14.4595 4.29807 13.8212 4.83747C13.7891 4.86646 13.7703 4.90742 13.7694 4.95067C13.7685 4.99392 13.7855 5.03563 13.8164 5.06596L14.816 6.07372C14.8453 6.10334 14.8852 6.12 14.9269 6.12C14.9686 6.12 15.0085 6.10334 15.0378 6.07372L16.0373 5.06596Z" fill="white"/>
<path d="M0.639208 4.12774H1.13761C1.41287 4.12774 1.63601 4.35088 1.63601 4.62614V5.62294C1.63601 5.89819 1.41287 6.12134 1.13761 6.12134H0.639208C0.363949 6.12134 0.140808 5.89819 0.140808 5.62294V4.62614C0.140808 4.35088 0.363949 4.12774 0.639208 4.12774ZM2.96507 3.13094H3.46347C3.73873 3.13094 3.96187 3.35408 3.96187 3.62934V5.62294C3.96187 5.89819 3.73873 6.12134 3.46347 6.12134H2.96507C2.68981 6.12134 2.46667 5.89819 2.46667 5.62294V3.62934C2.46667 3.35408 2.68981 3.13094 2.96507 3.13094ZM5.29095 1.968H5.78935C6.06461 1.968 6.28775 2.19114 6.28775 2.4664V5.62294C6.28775 5.89819 6.06461 6.12134 5.78935 6.12134H5.29095C5.01569 6.12134 4.79255 5.89819 4.79255 5.62294V2.4664C4.79255 2.19114 5.01569 1.968 5.29095 1.968ZM7.61681 0.805069H8.11521C8.39047 0.805069 8.61361 1.02821 8.61361 1.30347V5.62294C8.61361 5.89819 8.39047 6.12134 8.11521 6.12134H7.61681C7.34155 6.12134 7.11841 5.89819 7.11841 5.62294V1.30347C7.11841 1.02821 7.34155 0.805069 7.61681 0.805069Z" fill="white"/>
</svg>
