<svg width="404" height="334" viewBox="0 0 404 334" fill="none" xmlns="http://www.w3.org/2000/svg">
<path fill-rule="evenodd" clip-rule="evenodd" d="M166.998 303.927C242.632 303.927 303.946 242.617 303.946 166.987C303.946 91.3576 242.632 30.0477 166.998 30.0477C91.3634 30.0477 30.0496 91.3576 30.0496 166.987C30.0496 242.617 91.3634 303.927 166.998 303.927Z" stroke="#3AD29F" stroke-width="0.305962" stroke-dasharray="1.84 1.84"/>
<path fill-rule="evenodd" clip-rule="evenodd" d="M166.998 332.974C258.676 332.974 332.996 258.659 332.996 166.987C332.996 75.315 258.676 1 166.998 1C75.3197 1 1 75.315 1 166.987C1 258.659 75.3197 332.974 166.998 332.974Z" stroke="#3AD29F" stroke-width="0.305962" stroke-dasharray="1.84 1.84"/>
<g clip-path="url(#clip0_106_49)">
<path opacity="0.2" d="M167.548 279.086C229.154 279.086 279.096 229.111 279.096 167.463C279.096 105.816 229.154 55.8407 167.548 55.8407C105.942 55.8407 56 105.816 56 167.463C56 229.111 105.942 279.086 167.548 279.086Z" fill="#F8A435"/>
<path d="M64.6912 261.084C59.9195 250.793 57.4452 239.585 57.4405 228.24C57.4357 216.895 59.9005 205.685 64.6635 195.39C69.4265 185.094 76.3734 175.961 85.0211 168.624C93.6687 161.287 103.81 155.923 114.739 152.905L121.376 176.917C113.931 178.97 107.023 182.622 101.131 187.618C95.2393 192.614 90.5061 198.835 87.2605 205.847C84.0148 212.859 82.3347 220.495 82.3369 228.223C82.3392 235.95 84.0237 243.585 87.2735 250.595L64.6912 261.084Z" fill="#F8A435"/>
<path d="M65.9935 294C64.6146 294.001 63.2623 293.62 62.0865 292.899C60.9106 292.178 59.9572 291.146 59.3317 289.916C57.5842 286.482 56.5298 282.737 56.2286 278.895C55.9274 275.053 56.3853 271.19 57.5763 267.525C59.9815 260.124 65.2265 253.982 72.1573 250.45C75.5891 248.701 79.3315 247.646 83.1708 247.345C87.0101 247.043 90.8711 247.502 94.5334 248.693C101.93 251.1 108.068 256.349 111.597 263.284C112.051 264.16 112.327 265.116 112.41 266.099C112.492 267.082 112.38 268.071 112.078 269.01C111.777 269.95 111.293 270.82 110.654 271.571C110.015 272.322 109.234 272.939 108.356 273.386C107.477 273.834 106.519 274.103 105.537 274.178C104.554 274.253 103.566 274.133 102.63 273.825C101.694 273.516 100.828 273.025 100.082 272.38C99.3364 271.736 98.7256 270.949 98.285 270.067C97.4302 268.378 96.2509 266.874 94.8146 265.642C93.3782 264.409 91.7131 263.473 89.9144 262.885C88.1158 262.297 86.219 262.071 84.3327 262.218C82.4463 262.365 80.6075 262.883 78.9214 263.742C77.2354 264.601 75.7352 265.784 74.5069 267.224C73.2785 268.664 72.3461 270.333 71.763 272.134C71.1799 273.935 70.9575 275.834 71.1086 277.721C71.2598 279.608 71.7815 281.447 72.6438 283.132C73.2229 284.272 73.5006 285.54 73.4502 286.817C73.3999 288.094 73.0232 289.337 72.3562 290.427C71.6892 291.517 70.7541 292.418 69.6402 293.043C68.5263 293.669 67.2708 293.998 65.9935 294V294Z" fill="#474646"/>
<path d="M259.044 166.716C248.552 175.683 235.858 181.682 222.273 184.095L217.89 159.569C229.968 157.39 240.922 151.098 248.892 141.759C256.862 132.42 261.359 120.609 261.618 108.331L286.509 108.85C286.123 128.859 278.045 147.95 263.953 162.152C262.373 163.75 260.736 165.271 259.044 166.716Z" fill="#F8A435"/>
<path d="M293.665 108.138C289.429 111.74 284.256 114.062 278.751 114.835C273.246 115.608 267.635 114.799 262.571 112.503C257.508 110.207 253.201 106.519 250.152 101.867C247.104 97.2152 245.439 91.7923 245.352 86.2302C245.333 84.2555 246.096 82.3534 247.473 80.9395C248.851 79.5255 250.732 78.7146 252.705 78.6838C254.678 78.6531 256.583 79.405 258.004 80.7753C259.426 82.1456 260.247 84.023 260.289 85.9974C260.348 89.8152 261.921 93.453 264.661 96.1107C267.4 98.7683 271.083 100.228 274.898 100.169C278.713 100.109 282.349 98.5358 285.005 95.7942C287.661 93.0527 289.119 89.3677 289.06 85.5498C289.029 83.5678 289.786 81.6548 291.165 80.2315C292.544 78.8082 294.431 77.9913 296.412 77.9604C298.393 77.9296 300.304 78.6874 301.727 80.0671C303.149 81.4468 303.966 83.3354 303.996 85.3174C304.067 89.1721 303.372 93.0024 301.953 96.5867C300.534 100.171 298.419 103.438 295.73 106.199C295.069 106.882 294.381 107.528 293.665 108.138Z" fill="#474646"/>
<path d="M240.39 1.56993L233.615 21.2313C233.572 21.3566 233.559 21.4903 233.577 21.6216C233.595 21.7529 233.643 21.8781 233.719 21.9871C233.794 22.0962 233.894 22.186 234.01 22.2493C234.126 22.3126 234.256 22.3477 234.388 22.3517L238.959 22.4882C239.093 22.4922 239.224 22.5281 239.342 22.5929C239.459 22.6578 239.56 22.7497 239.635 22.861C239.71 22.9724 239.757 23.1 239.773 23.2333C239.789 23.3666 239.773 23.5018 239.726 23.6276L232.186 43.9404C232.115 44.1304 232.116 44.3395 232.186 44.5294C232.257 44.7193 232.394 44.8775 232.571 44.9751C232.749 45.0726 232.955 45.1032 233.153 45.0611C233.352 45.019 233.528 44.907 233.651 44.7457L251.404 21.3314C251.482 21.2276 251.536 21.1071 251.56 20.9792C251.585 20.8513 251.579 20.7195 251.545 20.594C251.51 20.4685 251.446 20.3528 251.36 20.2559C251.273 20.159 251.165 20.0834 251.044 20.0352L245.726 17.9122C245.622 17.8707 245.528 17.8089 245.448 17.7304C245.368 17.652 245.304 17.5584 245.261 17.4551C245.218 17.3518 245.195 17.241 245.195 17.1289C245.195 17.0169 245.217 16.906 245.26 16.8025L251.222 2.46949C251.275 2.34317 251.296 2.20598 251.284 2.06971C251.272 1.93343 251.227 1.80214 251.152 1.68711C251.078 1.57208 250.978 1.47674 250.859 1.40929C250.74 1.34184 250.606 1.30428 250.47 1.29985L241.216 0.999997C241.035 0.99417 240.858 1.04637 240.709 1.14895C240.561 1.25152 240.449 1.39907 240.39 1.56993V1.56993Z" fill="#F8A435"/>
<path d="M67.3422 91.8042L75.2365 107.168C75.2866 107.265 75.313 107.374 75.3137 107.484C75.3143 107.594 75.2892 107.703 75.2402 107.801C75.1912 107.9 75.1198 107.985 75.0317 108.051C74.9437 108.117 74.8414 108.161 74.7331 108.18L70.9913 108.833C70.8816 108.853 70.778 108.898 70.6892 108.965C70.6003 109.032 70.5287 109.12 70.4802 109.22C70.4318 109.321 70.4079 109.431 70.4105 109.543C70.4131 109.654 70.4422 109.763 70.4953 109.861L79.0968 125.669C79.1757 125.817 79.1992 125.988 79.163 126.152C79.1268 126.316 79.0333 126.461 78.8994 126.562C78.7656 126.663 78.6001 126.712 78.4329 126.702C78.2657 126.691 78.1077 126.621 77.9875 126.505L60.6233 109.355C60.5466 109.279 60.4885 109.187 60.4534 109.084C60.4183 108.982 60.4072 108.873 60.421 108.766C60.4348 108.659 60.4731 108.556 60.5329 108.466C60.5927 108.376 60.6725 108.302 60.7659 108.247L64.8867 105.873C64.9672 105.826 65.0376 105.764 65.094 105.69C65.1503 105.616 65.1914 105.531 65.2149 105.441C65.2384 105.351 65.2438 105.258 65.2308 105.165C65.2178 105.073 65.1867 104.985 65.1392 104.905L58.5427 93.8263C58.4849 93.7286 58.4517 93.6184 58.4457 93.5051C58.4397 93.3918 58.4613 93.2787 58.5085 93.1755C58.5557 93.0724 58.6271 92.9822 58.7167 92.9126C58.8063 92.8431 58.9114 92.7962 59.023 92.7761L66.5961 91.4349C66.7436 91.4089 66.8955 91.4307 67.0297 91.4971C67.1639 91.5635 67.2734 91.6711 67.3422 91.8042V91.8042Z" fill="#474646"/>
<path d="M98.0205 154.213L114.525 247.621C116.659 259.696 122.974 270.633 132.363 278.513C141.752 286.393 153.614 290.712 165.868 290.712V290.712C177.815 290.712 189.4 286.607 198.684 279.083C207.968 271.56 214.388 261.073 216.871 249.38L237.076 154.212L98.0205 154.213Z" fill="#F8A435"/>
<path d="M167.548 174.783C205.947 174.783 237.075 165.574 237.075 154.213C237.075 142.853 205.947 133.643 167.548 133.643C129.149 133.643 98.0205 142.853 98.0205 154.213C98.0205 165.574 129.149 174.783 167.548 174.783Z" fill="#474646"/>
<path d="M192.287 206.995H143.622C139.012 206.995 135.275 210.735 135.275 215.348V238.906C135.275 243.519 139.012 247.258 143.622 247.258H192.287C196.897 247.258 200.634 243.519 200.634 238.906V215.348C200.634 210.735 196.897 206.995 192.287 206.995Z" fill="#474646"/>
<path d="M162.682 227.879H159.788C159.788 224.064 161.515 218.808 169.742 215.427C174.561 213.446 172.966 206.127 172.949 206.053L175.769 205.405C175.86 205.803 177.934 215.19 170.842 218.102C165.427 220.328 162.682 223.619 162.682 227.879Z" fill="#F8A435"/>
<path d="M188.639 248.952C185.825 243.672 184.651 243.777 179.7 244.217C178.088 244.361 176.083 244.539 173.634 244.539C162.675 244.539 161.535 236.557 161.524 236.477L164.394 236.112L162.959 236.294L164.392 236.098C164.425 236.325 165.301 241.644 173.634 241.644C175.953 241.644 177.808 241.479 179.443 241.334C185.013 240.837 187.627 240.9 191.191 247.589L188.639 248.952Z" fill="#F8A435"/>
<path d="M155.196 229.363C155.097 229.362 154.999 229.339 154.912 229.293L151.784 227.68C151.638 227.605 151.528 227.474 151.478 227.317C151.428 227.16 151.443 226.99 151.518 226.844C151.594 226.698 151.724 226.588 151.881 226.538C152.037 226.488 152.207 226.502 152.354 226.577L155.481 228.19C155.605 228.254 155.703 228.358 155.761 228.484C155.819 228.611 155.833 228.754 155.8 228.889C155.767 229.024 155.689 229.145 155.58 229.23C155.47 229.316 155.335 229.363 155.196 229.363V229.363Z" fill="white"/>
<path d="M151.417 235.502C151.273 235.502 151.133 235.451 151.022 235.358C150.911 235.265 150.836 235.137 150.81 234.994C150.783 234.852 150.808 234.705 150.878 234.579C150.949 234.452 151.062 234.355 151.197 234.303L154.485 233.05C154.637 233 154.802 233.011 154.946 233.079C155.09 233.148 155.202 233.269 155.259 233.418C155.315 233.567 155.313 233.733 155.251 233.88C155.189 234.027 155.073 234.144 154.927 234.208L151.638 235.461C151.568 235.488 151.493 235.502 151.417 235.502Z" fill="white"/>
<path d="M171.196 232.953C171.04 232.952 170.891 232.894 170.777 232.788C170.662 232.683 170.592 232.539 170.579 232.384C170.566 232.229 170.612 232.075 170.707 231.952C170.802 231.829 170.94 231.746 171.093 231.72L174.565 231.134C174.727 231.107 174.892 231.146 175.026 231.241C175.159 231.336 175.249 231.481 175.277 231.642C175.304 231.804 175.266 231.97 175.172 232.104C175.077 232.238 174.933 232.329 174.772 232.357L171.3 232.944C171.266 232.95 171.231 232.952 171.196 232.953V232.953Z" fill="white"/>
<path d="M168.657 228.75C168.546 228.75 168.437 228.72 168.342 228.663C168.246 228.607 168.168 228.526 168.114 228.429C168.061 228.332 168.034 228.222 168.037 228.111C168.041 228 168.074 227.892 168.133 227.798L170.011 224.82C170.054 224.75 170.11 224.688 170.177 224.64C170.243 224.591 170.319 224.556 170.399 224.537C170.479 224.518 170.563 224.515 170.644 224.529C170.725 224.542 170.803 224.572 170.873 224.616C170.943 224.66 171.003 224.718 171.05 224.785C171.097 224.853 171.131 224.929 171.148 225.01C171.166 225.09 171.167 225.174 171.152 225.255C171.136 225.336 171.105 225.413 171.06 225.482L169.181 228.46C169.125 228.549 169.048 228.622 168.956 228.672C168.865 228.723 168.762 228.75 168.657 228.75Z" fill="white"/>
<path d="M204.046 225.712C198.027 225.712 193.006 224.067 189.081 220.801C181.83 214.767 181.052 205.453 181.022 205.06L183.906 204.843L182.464 204.951L183.906 204.841C183.913 204.923 184.643 213.361 190.952 218.594C195.085 222.02 200.72 223.372 207.711 222.61L208.024 225.488C206.703 225.635 205.375 225.71 204.046 225.712V225.712Z" fill="#F8A435"/>
<path d="M128.617 243.705L128.083 240.86C139.175 238.773 139.166 234.155 139.157 228.809C139.151 225.208 139.143 221.127 143.382 218.741C151.266 214.302 150.635 204.243 150.628 204.141L153.513 203.924C153.549 204.411 154.311 215.91 144.801 221.263C142.173 222.743 142.043 225.092 142.05 228.803C142.06 234.314 142.072 241.173 128.617 243.705Z" fill="#F8A435"/>
<path d="M214.117 160.631C214.061 160.631 214.006 160.625 213.952 160.614C210.82 159.984 204.912 157.306 204.964 151.674C204.96 150.57 205.222 149.482 205.729 148.501C206.235 147.521 206.971 146.677 207.873 146.042C206.95 144.329 206.677 142.34 207.104 140.442C208.285 134.283 214.482 133.204 217.595 133.496C217.813 133.517 218.013 133.623 218.152 133.792C218.292 133.961 218.359 134.178 218.338 134.395C218.318 134.613 218.213 134.814 218.045 134.954C217.877 135.095 217.661 135.163 217.443 135.143C217.137 135.115 209.92 134.538 208.728 140.754C208.376 142.254 208.576 143.831 209.291 145.195C212.36 143.714 216.563 143.706 218.492 145.182C218.879 145.447 219.18 145.819 219.358 146.253C219.536 146.686 219.584 147.162 219.496 147.623C219.11 149.637 216.748 150.642 213.756 150.067C211.873 149.723 210.15 148.782 208.841 147.384C208.149 147.867 207.584 148.511 207.197 149.262C206.809 150.012 206.611 150.846 206.618 151.69C206.564 157.357 214.202 158.977 214.278 158.993C214.48 159.033 214.659 159.147 214.781 159.312C214.903 159.477 214.959 159.682 214.939 159.886C214.918 160.09 214.823 160.28 214.671 160.417C214.519 160.555 214.321 160.631 214.116 160.631L214.117 160.631ZM210.332 146.539C211.374 147.512 212.67 148.172 214.07 148.442C216.042 148.819 217.679 148.334 217.875 147.31C217.905 147.151 217.883 146.987 217.814 146.841C217.745 146.694 217.632 146.574 217.49 146.496C216.242 145.541 212.989 145.385 210.332 146.539Z" fill="white"/>
<path d="M143.462 154.418C143.288 154.418 143.119 154.363 142.978 154.262C142.837 154.16 142.732 154.017 142.677 153.852C142.622 153.688 142.621 153.51 142.673 153.344C142.724 153.178 142.827 153.033 142.966 152.929C143.144 152.795 147.305 149.584 144.939 145.688C144.432 144.779 143.635 144.066 142.677 143.662C141.643 146.019 139.307 148.087 137.472 148.241C137.085 148.293 136.692 148.23 136.34 148.061C135.988 147.892 135.694 147.624 135.492 147.29C135.266 146.896 135.151 146.448 135.16 145.994C135.169 145.54 135.302 145.097 135.544 144.713C136.465 143.029 138.757 141.77 140.992 141.72C141.178 141.717 141.364 141.72 141.545 141.732C141.649 141.17 141.621 140.591 141.462 140.042C141.303 139.493 141.019 138.988 140.632 138.568C137.913 135.504 133.004 138.376 132.955 138.405C132.862 138.46 132.758 138.497 132.651 138.513C132.544 138.528 132.434 138.523 132.329 138.496C132.224 138.469 132.125 138.422 132.038 138.357C131.951 138.292 131.877 138.211 131.822 138.117C131.766 138.024 131.73 137.921 131.714 137.813C131.698 137.706 131.704 137.596 131.731 137.491C131.757 137.386 131.804 137.287 131.869 137.199C131.934 137.112 132.016 137.039 132.109 136.983C132.357 136.835 138.253 133.395 141.868 137.469C142.428 138.082 142.838 138.818 143.063 139.618C143.288 140.418 143.324 141.26 143.166 142.076C144.51 142.602 145.634 143.573 146.352 144.827C148.873 148.974 145.887 152.804 143.958 154.25C143.815 154.359 143.641 154.418 143.462 154.418V154.418ZM140.982 143.378C139.182 143.436 137.545 144.502 136.993 145.51C136.896 145.642 136.837 145.797 136.821 145.96C136.805 146.122 136.834 146.286 136.904 146.434C136.945 146.504 137.018 146.618 137.335 146.594C138.371 146.508 140.072 145.13 140.981 143.378H140.982Z" fill="white"/>
<path d="M233.978 85.5453C238.21 115.489 210.13 134.161 172.979 139.418C135.828 144.675 103.677 134.527 99.4452 104.581C95.2136 74.6351 120.505 36.2306 157.655 30.9739C194.806 25.7171 229.747 55.5992 233.978 85.5453Z" fill="#F8A435"/>
<path d="M198.339 53.5231L160.077 58.9369C148.083 60.6338 139.736 71.7387 141.431 83.7402C143.127 95.7418 154.225 104.095 166.218 102.398L204.48 96.9846C216.474 95.2876 224.822 84.1828 223.126 72.1812C221.43 60.1797 210.333 51.8262 198.339 53.5231Z" fill="white"/>
<path d="M154.364 7.80059L151.397 8.36963L157.128 38.2858L160.094 37.7167L154.364 7.80059Z" fill="#F8A435"/>
<path d="M153.305 15.8227C156.354 15.8227 158.826 13.3492 158.826 10.298C158.826 7.24672 156.354 4.77319 153.305 4.77319C150.256 4.77319 147.784 7.24672 147.784 10.298C147.784 13.3492 150.256 15.8227 153.305 15.8227Z" fill="#474646"/>
<path d="M174.029 88.7531C173.492 88.7532 172.969 88.5781 172.541 88.2543L156.293 76.0256C156.028 75.8315 155.804 75.5867 155.635 75.3054C155.465 75.024 155.353 74.7118 155.305 74.3868C155.257 74.0617 155.274 73.7304 155.355 73.412C155.436 73.0935 155.579 72.7944 155.776 72.5318C155.974 72.2692 156.221 72.0485 156.504 71.8824C156.788 71.7163 157.101 71.6082 157.427 71.5643C157.752 71.5203 158.083 71.5415 158.4 71.6266C158.717 71.7116 159.014 71.8589 159.274 72.0597L175.521 84.2892C175.938 84.602 176.246 85.038 176.401 85.5356C176.556 86.0332 176.55 86.567 176.385 87.0614C176.22 87.5557 175.903 87.9854 175.48 88.2896C175.057 88.5938 174.55 88.757 174.029 88.756V88.7531Z" fill="#474646"/>
<path d="M159.794 90.7669C159.333 90.7666 158.882 90.6378 158.49 90.395C158.098 90.1523 157.782 89.8052 157.576 89.3926C157.371 88.9801 157.284 88.5184 157.326 88.0593C157.368 87.6002 157.537 87.1619 157.814 86.7935L170.036 70.5352C170.434 70.0152 171.02 69.6735 171.668 69.5844C172.317 69.4954 172.974 69.6663 173.497 70.0599C174.019 70.4535 174.366 71.0379 174.46 71.6858C174.554 72.3337 174.388 72.9925 173.999 73.5189L161.778 89.7772C161.546 90.085 161.247 90.3348 160.902 90.5066C160.558 90.6784 160.178 90.7675 159.794 90.7669Z" fill="#474646"/>
<path d="M209.312 83.7598C208.775 83.76 208.253 83.5848 207.824 83.261L191.577 71.0311C191.315 70.836 191.094 70.5909 190.926 70.31C190.759 70.029 190.649 69.7177 190.602 69.394C190.555 69.0703 190.573 68.7406 190.654 68.4238C190.735 68.107 190.878 67.8093 191.075 67.5479C191.271 67.2865 191.517 67.0666 191.799 66.9008C192.081 66.7349 192.392 66.6264 192.716 66.5815C193.04 66.5366 193.369 66.5562 193.685 66.6391C194.002 66.7221 194.298 66.8667 194.558 67.0648L210.805 79.2947C211.222 79.6074 211.53 80.0435 211.685 80.5411C211.84 81.0387 211.835 81.5725 211.669 82.0668C211.504 82.5612 211.188 82.9909 210.765 83.2951C210.342 83.5993 209.834 83.7624 209.313 83.7615L209.312 83.7598Z" fill="#474646"/>
<path d="M195.078 85.7744C194.617 85.7741 194.166 85.6454 193.774 85.4027C193.382 85.16 193.066 84.8129 192.86 84.4004C192.655 83.9878 192.568 83.5261 192.61 83.0669C192.652 82.6078 192.821 82.1695 193.098 81.8011L205.319 65.5427C205.715 65.0168 206.303 64.6695 206.954 64.5774C207.605 64.4852 208.266 64.6557 208.792 65.0514C209.318 65.447 209.665 66.0354 209.757 66.6871C209.849 67.3388 209.679 68.0004 209.283 68.5264L197.061 84.7847C196.83 85.0926 196.531 85.3423 196.187 85.5141C195.842 85.6859 195.463 85.775 195.078 85.7744V85.7744Z" fill="#474646"/>
<path d="M185.714 109.186C186.46 108.197 187.472 107.441 188.631 107.006C189.791 106.57 191.05 106.473 192.262 106.727C193.474 106.98 194.59 107.572 195.478 108.436C196.367 109.299 196.992 110.397 197.281 111.602C197.333 111.815 197.343 112.036 197.31 112.253C197.277 112.47 197.201 112.679 197.087 112.866C196.972 113.054 196.822 113.217 196.645 113.346C196.468 113.475 196.267 113.568 196.053 113.619C195.84 113.671 195.618 113.679 195.402 113.644C195.185 113.61 194.977 113.532 194.791 113.417C194.604 113.301 194.442 113.15 194.314 112.972C194.186 112.794 194.094 112.592 194.045 112.378C193.947 111.968 193.769 111.582 193.521 111.241C193.274 110.901 192.962 110.612 192.603 110.392C192.245 110.172 191.846 110.024 191.43 109.958C191.015 109.892 190.59 109.909 190.181 110.007C189.772 110.105 189.386 110.283 189.045 110.531C188.704 110.778 188.416 111.09 188.196 111.449C187.976 111.808 187.829 112.207 187.763 112.623C187.697 113.039 187.713 113.464 187.811 113.873C187.911 114.302 187.837 114.752 187.607 115.126C187.376 115.5 187.006 115.768 186.579 115.87C186.151 115.973 185.701 115.902 185.325 115.673C184.95 115.445 184.68 115.077 184.575 114.65C184.373 113.815 184.338 112.949 184.473 112.1C184.608 111.252 184.91 110.439 185.36 109.708C185.47 109.528 185.588 109.354 185.714 109.186Z" fill="#474646"/>
</g>
<path d="M381.888 38.4258H259.872C247.971 38.4258 238.323 48.0777 238.323 59.984V59.9845C238.323 71.8908 247.971 81.5427 259.872 81.5427H381.888C393.789 81.5427 403.437 71.8908 403.437 59.9845V59.984C403.437 48.0777 393.789 38.4258 381.888 38.4258Z" fill="white"/>
<path d="M381.888 81.9682H259.872C254.061 81.941 248.499 79.6128 244.4 75.493C240.301 71.3731 238 65.797 238 59.9842C238 54.1715 240.301 48.5954 244.4 44.4755C248.499 40.3557 254.061 38.0275 259.872 38.0002H381.888C384.782 37.9867 387.651 38.5453 390.329 39.644C393.007 40.7427 395.441 42.3599 397.493 44.4026C399.544 46.4454 401.172 48.8735 402.283 51.5474C403.394 54.2214 403.965 57.0886 403.965 59.9842C403.965 62.8799 403.394 65.7471 402.283 68.4211C401.172 71.095 399.544 73.5231 397.493 75.5659C395.441 77.6086 393.007 79.2258 390.329 80.3245C387.651 81.4232 384.782 81.9818 381.888 81.9682V81.9682ZM259.872 38.8513C254.269 38.8513 248.897 41.0778 244.935 45.0408C240.974 49.0039 238.749 54.3789 238.749 59.9835C238.749 65.5881 240.974 70.9632 244.935 74.9262C248.897 78.8893 254.269 81.1157 259.872 81.1157H381.888C387.49 81.1157 392.863 78.8893 396.824 74.9262C400.785 70.9632 403.011 65.5881 403.011 59.9835C403.011 54.3789 400.785 49.0039 396.824 45.0408C392.863 41.0778 387.49 38.8513 381.888 38.8513H259.872Z" fill="#474646"/>
<path d="M291.121 63.64L291.061 60.48L288.541 62.24L287.521 60.26L290.401 59.24L288.001 57.42L289.581 55.84L291.401 58.24L292.401 55.34L294.401 56.36L292.641 58.9L295.761 58.96L295.401 61.18L292.441 60.26L293.341 63.26L291.121 63.64ZM300.926 63.64L300.866 60.48L298.346 62.24L297.326 60.26L300.206 59.24L297.806 57.42L299.386 55.84L301.206 58.24L302.206 55.34L304.206 56.36L302.446 58.9L305.566 58.96L305.206 61.18L302.246 60.26L303.146 63.26L300.926 63.64ZM310.731 63.64L310.671 60.48L308.151 62.24L307.131 60.26L310.011 59.24L307.611 57.42L309.191 55.84L311.011 58.24L312.011 55.34L314.011 56.36L312.251 58.9L315.371 58.96L315.011 61.18L312.051 60.26L312.951 63.26L310.731 63.64ZM320.535 63.64L320.475 60.48L317.955 62.24L316.935 60.26L319.815 59.24L317.415 57.42L318.995 55.84L320.815 58.24L321.815 55.34L323.815 56.36L322.055 58.9L325.175 58.96L324.815 61.18L321.855 60.26L322.755 63.26L320.535 63.64ZM330.34 63.64L330.28 60.48L327.76 62.24L326.74 60.26L329.62 59.24L327.22 57.42L328.8 55.84L330.62 58.24L331.62 55.34L333.62 56.36L331.86 58.9L334.98 58.96L334.62 61.18L331.66 60.26L332.56 63.26L330.34 63.64ZM340.145 63.64L340.085 60.48L337.565 62.24L336.545 60.26L339.425 59.24L337.025 57.42L338.605 55.84L340.425 58.24L341.425 55.34L343.425 56.36L341.665 58.9L344.785 58.96L344.425 61.18L341.465 60.26L342.365 63.26L340.145 63.64ZM349.949 63.64L349.889 60.48L347.369 62.24L346.349 60.26L349.229 59.24L346.829 57.42L348.409 55.84L350.229 58.24L351.229 55.34L353.229 56.36L351.469 58.9L354.589 58.96L354.229 61.18L351.269 60.26L352.169 63.26L349.949 63.64ZM359.754 63.64L359.694 60.48L357.174 62.24L356.154 60.26L359.034 59.24L356.634 57.42L358.214 55.84L360.034 58.24L361.034 55.34L363.034 56.36L361.274 58.9L364.394 58.96L364.034 61.18L361.074 60.26L361.974 63.26L359.754 63.64Z" fill="black"/>
<path d="M264.5 74.932C272.508 74.932 279 68.4405 279 60.4329C279 52.4253 272.508 45.9339 264.5 45.9339C256.492 45.9339 250 52.4253 250 60.4329C250 68.4405 256.492 74.932 264.5 74.932Z" fill="#69F0AE"/>
<path d="M258.207 58.4974L263.644 63.4817L271.347 52.1548L274.067 54.4209L263.644 68.0139L255.94 59.4052L258.207 58.4974Z" fill="white"/>
<defs>
<clipPath id="clip0_106_49">
<rect width="248" height="293" fill="white" transform="translate(56 1)"/>
</clipPath>
</defs>
</svg>
